<svg width="94" height="94" viewBox="0 0 94 94" fill="none" xmlns="http://www.w3.org/2000/svg">
<path d="M36.3959 68.1616C24.5383 62.4535 19.5664 48.2515 25.2745 36.3938C30.9826 24.5362 45.1847 19.5643 57.0423 25.2724C68.8999 30.9805 73.8718 45.1826 68.1637 57.0402C62.4556 68.8978 48.2535 73.8698 36.3959 68.1616ZM55.8278 27.7953C45.3578 22.7552 32.8375 27.1383 27.7974 37.6083C22.7572 48.0784 27.1404 60.5986 37.6104 65.6388C48.0804 70.6789 60.6007 66.2957 65.6408 55.8257C70.681 45.3557 66.2978 32.8354 55.8278 27.7953Z" fill="white"/>
<path d="M56.1551 53.9013L50.7252 38.3911L35.215 43.821L34.2992 41.2048L52.4255 34.859L58.7713 52.9854L56.1551 53.9013Z" fill="white"/>
<path d="M50.3145 36.0176L52.8373 37.2321L42.5142 58.6767L39.9913 57.4622L50.3145 36.0176Z" fill="white"/>
</svg>
